<svg xmlns="http://www.w3.org/2000/svg" xmlns:xlink="http://www.w3.org/1999/xlink" version="1.1" data-diagram-type="SEQUENCE" style="width:2235px;height:1725px;background:#FFFFFF;" width="2235px" height="1725px" viewBox="0 0 2235 1725" zoomAndPan="magnify" preserveAspectRatio="none" contentStyleType="text/css"><?plantuml 1.2026.8beta1?><defs><filter id="fhsac96726hh5" x="-1" y="-1" width="300%" height="300%"><feGaussianBlur result="blurOut" stdDeviation="2"/><feColorMatrix type="matrix" in="blurOut" result="blurOut2" values="0 0 0 0 0 0 0 0 0 0 0 0 0 0 0 0 0 0 .4 0"/><feOffset result="blurOut3" in="blurOut2" dx="4" dy="4"/><feBlend in="SourceGraphic" in2="blurOut3" mode="normal"/></filter></defs><g font-family="sans-serif" lengthAdjust="spacing"><g class="header" data-source-line="19"><text x="1964.878" y="19.282" fill="#000" font-size="10" textLength="258.779" font-family="Verdana">Plataforma Hospitalaria Código Azul — ONETP 2026</text></g><g class="title" data-source-line="20"><text x="686.11" y="58.062" fill="#000" font-size="22" textLength="861.438" font-weight="700" font-family="Verdana">UML-02: Diagrama de Secuencia — Cascada Transaccional &amp; Reactiva</text></g><rect x="393.964" y="80.25" width="1199.16" height="1630.039" fill="#EFF6FF" style="stroke:#CBD5E1;stroke-width:1;" rx="3" ry="3"/><text x="853.857" y="92.317" fill="#000" font-size="13" textLength="279.373" font-weight="700" font-family="Verdana">Backend Core (Express 5 / Node.js 24)</text><rect x="1637.163" y="80.25" width="264.143" height="1630.039" fill="#FEF3C7" style="stroke:#CBD5E1;stroke-width:1;" rx="3" ry="3"/><text x="1658.223" y="92.317" fill="#000" font-size="13" textLength="222.022" font-weight="700" font-family="Verdana">Infraestructura &amp; Persistencia</text><rect x="57.454" y="424.906" width="2135.559" height="635.398" fill="#FFF" style="stroke:#FFF;stroke-width:1;" rx="3" ry="3"/><rect x="57.454" y="424.906" width="2135.559" height="635.398" fill="none" style="stroke:#000;stroke-width:1;" filter="url(#fhsac96726hh5)" rx="3" ry="3"/><rect x="1292.954" y="767.305" width="875.059" height="220.734" fill="#FFF" style="stroke:#FFF;stroke-width:1;" rx="3" ry="3"/><rect x="1292.954" y="767.305" width="875.059" height="220.734" fill="none" style="stroke:#000;stroke-width:1;" filter="url(#fhsac96726hh5)" rx="3" ry="3"/><g><title>M.dico Activador</title><rect x="69.954" y="195.977" width="8" height="1411.719" fill="#000" fill-opacity="0"/><line x1="73.454" y1="195.977" x2="73.454" y2="1607.695" style="stroke:#475569;stroke-width:1;stroke-dasharray:5,5;"/></g><g><title>API REST</title><rect x="469.65" y="195.977" width="8" height="1411.719" fill="#000" fill-opacity="0"/><line x1="473.15" y1="195.977" x2="473.15" y2="1607.695" style="stroke:#475569;stroke-width:1;stroke-dasharray:5,5;"/></g><g><title></title><rect x="468.15" y="283.375" width="10" height="768.93" fill="#94A3B8" style="stroke:#000;stroke-width:1;" filter="url(#fhsac96726hh5)"/></g><g><title></title><rect x="468.15" y="1153.703" width="10" height="435.992" fill="#94A3B8" style="stroke:#000;stroke-width:1;" filter="url(#fhsac96726hh5)"/></g><g><title>Use Cases</title><rect x="876.577" y="195.977" width="8" height="1411.719" fill="#000" fill-opacity="0"/><line x1="880.077" y1="195.977" x2="880.077" y2="1607.695" style="stroke:#475569;stroke-width:1;stroke-dasharray:5,5;"/></g><g><title></title><rect x="875.077" y="354.641" width="10" height="668.531" fill="#94A3B8" style="stroke:#000;stroke-width:1;" filter="url(#fhsac96726hh5)"/></g><g><title></title><rect x="875.077" y="1182.836" width="10" height="377.727" fill="#94A3B8" style="stroke:#000;stroke-width:1;" filter="url(#fhsac96726hh5)"/></g><g><title>appEvents</title><rect x="1305.454" y="195.977" width="8" height="1411.719" fill="#000" fill-opacity="0"/><line x1="1308.954" y1="195.977" x2="1308.954" y2="1607.695" style="stroke:#475569;stroke-width:1;stroke-dasharray:5,5;"/></g><g><title></title><rect x="1303.954" y="755.305" width="10" height="246.734" fill="#94A3B8" style="stroke:#000;stroke-width:1;" filter="url(#fhsac96726hh5)"/></g><g><title></title><rect x="1303.954" y="1473.164" width="10" height="66.266" fill="#94A3B8" style="stroke:#000;stroke-width:1;" filter="url(#fhsac96726hh5)"/></g><g><title>Socket Gateway</title><rect x="1512.296" y="195.977" width="8" height="1411.719" fill="#000" fill-opacity="0"/><line x1="1515.796" y1="195.977" x2="1515.796" y2="1607.695" style="stroke:#475569;stroke-width:1;stroke-dasharray:5,5;"/></g><g><title></title><rect x="1510.796" y="815.57" width="10" height="58.266" fill="#94A3B8" style="stroke:#000;stroke-width:1;" filter="url(#fhsac96726hh5)"/></g><g><title></title><rect x="1510.796" y="1502.297" width="10" height="29.133" fill="#94A3B8" style="stroke:#000;stroke-width:1;" filter="url(#fhsac96726hh5)"/></g><g><title>PostgreSQL 18</title><rect x="1692.172" y="195.977" width="8" height="1411.719" fill="#000" fill-opacity="0"/><line x1="1695.672" y1="195.977" x2="1695.672" y2="1607.695" style="stroke:#475569;stroke-width:1;stroke-dasharray:5,5;"/></g><g><title></title><rect x="1690.672" y="383.773" width="10" height="29.133" fill="#94A3B8" style="stroke:#000;stroke-width:1;" filter="url(#fhsac96726hh5)"/></g><g><title></title><rect x="1690.672" y="579.375" width="10" height="146.797" fill="#94A3B8" style="stroke:#000;stroke-width:1;" filter="url(#fhsac96726hh5)"/></g><g><title></title><rect x="1690.672" y="1211.969" width="10" height="29.133" fill="#94A3B8" style="stroke:#000;stroke-width:1;" filter="url(#fhsac96726hh5)"/></g><g><title></title><rect x="1690.672" y="1312.367" width="10" height="131.664" fill="#94A3B8" style="stroke:#000;stroke-width:1;" filter="url(#fhsac96726hh5)"/></g><g><title>Firebase Cloud</title><rect x="1825.243" y="195.977" width="8" height="1411.719" fill="#000" fill-opacity="0"/><line x1="1828.743" y1="195.977" x2="1828.743" y2="1607.695" style="stroke:#475569;stroke-width:1;stroke-dasharray:5,5;"/></g><g><title></title><rect x="1823.743" y="921.773" width="10" height="29.133" fill="#94A3B8" style="stroke:#000;stroke-width:1;" filter="url(#fhsac96726hh5)"/></g><g><title>Dashboard Guardia</title><rect x="1994.837" y="195.977" width="8" height="1411.719" fill="#000" fill-opacity="0"/><line x1="1998.337" y1="195.977" x2="1998.337" y2="1607.695" style="stroke:#475569;stroke-width:1;stroke-dasharray:5,5;"/></g><g><title>Reanimador M.dico</title><rect x="2148.513" y="195.977" width="8" height="1411.719" fill="#000" fill-opacity="0"/><line x1="2152.013" y1="195.977" x2="2152.013" y2="1607.695" style="stroke:#475569;stroke-width:1;stroke-dasharray:5,5;"/></g><text x="10" y="176.378" fill="#0F172A" font-size="14" textLength="120.907" font-family="Verdana">Médico Activador</text><text x="23.897" y="192.675" fill="#0F172A" font-size="14" textLength="93.112" font-family="Verdana">(PWA / Móvil)</text><ellipse cx="73.454" cy="108.383" rx="8" ry="8" fill="#0284C7" style="stroke:#0369A1;stroke-width:1;" filter="url(#fhsac96726hh5)"/><path d="M73.454,116.383 L73.454,143.383 M60.454,124.383 L86.454,124.383 M73.454,143.383 L60.454,158.383 M73.454,143.383 L86.454,158.383" style="stroke:#0369A1;stroke-width:1;" fill="none" filter="url(#fhsac96726hh5)"/><rect x="407.964" y="144.383" width="127.373" height="42.594" fill="#1E293B" style="stroke:#0F172A;stroke-width:1;" filter="url(#fhsac96726hh5)" rx="3" ry="3"/><text x="440.345" y="162.378" fill="#FFF" font-size="14" textLength="62.61" font-family="Verdana">API REST</text><text x="412.964" y="178.675" fill="#FFF" font-size="14" textLength="117.373" font-family="Verdana">(Express Router)</text><rect x="802.863" y="144.383" width="151.429" height="42.594" fill="#1E293B" style="stroke:#0F172A;stroke-width:1;" filter="url(#fhsac96726hh5)" rx="3" ry="3"/><text x="842.497" y="162.378" fill="#FFF" font-size="14" textLength="72.16" font-family="Verdana">Use Cases</text><text x="807.863" y="178.675" fill="#FFF" font-size="14" textLength="141.429" font-family="Verdana">(Clean Architecture)</text><rect x="1261.828" y="144.383" width="91.252" height="42.594" fill="#1E293B" style="stroke:#0F172A;stroke-width:1;" filter="url(#fhsac96726hh5)" rx="3" ry="3"/><text x="1270.578" y="162.378" fill="#FFF" font-size="14" textLength="73.753" font-family="Verdana">appEvents</text><text x="1266.828" y="178.675" fill="#FFF" font-size="14" textLength="81.252" font-family="Verdana">(Event Bus)</text><rect x="1452.469" y="144.383" width="123.654" height="42.594" fill="#1E293B" style="stroke:#0F172A;stroke-width:1;" filter="url(#fhsac96726hh5)" rx="3" ry="3"/><text x="1457.469" y="162.378" fill="#FFF" font-size="14" textLength="113.654" font-family="Verdana">Socket Gateway</text><text x="1475.355" y="178.675" fill="#FFF" font-size="14" textLength="77.882" font-family="Verdana">(Socket.IO)</text><text x="1641.163" y="176.378" fill="#000" font-size="14" textLength="103.018" font-family="Verdana">PostgreSQL 18</text><text x="1643.863" y="192.675" fill="#000" font-size="14" textLength="97.617" font-family="Verdana">(ACID Engine)</text><path d="M1677.672,127.383 C1677.672,117.383 1695.672,117.383 1695.672,117.383 C1695.672,117.383 1713.672,117.383 1713.672,127.383 L1713.672,153.383 C1713.672,163.383 1695.672,163.383 1695.672,163.383 C1695.672,163.383 1677.672,163.383 1677.672,153.383 L1677.672,127.383" style="stroke:#000;stroke-width:1;" fill="#FFF" filter="url(#fhsac96726hh5)"/><path d="M1677.672,127.383 C1677.672,137.383 1695.672,137.383 1695.672,137.383 C1695.672,137.383 1713.672,137.383 1713.672,127.383" style="stroke:#000;stroke-width:1;" fill="none"/><rect x="1770.181" y="144.383" width="114.125" height="42.594" fill="#1E293B" style="stroke:#0F172A;stroke-width:1;" filter="url(#fhsac96726hh5)" rx="3" ry="3"/><text x="1775.181" y="162.378" fill="#FFF" font-size="14" textLength="104.125" font-family="Verdana">Firebase Cloud</text><text x="1775.745" y="178.675" fill="#FFF" font-size="14" textLength="102.997" font-family="Verdana">(FCM HTTP v1)</text><text x="1927.306" y="176.378" fill="#0F172A" font-size="14" textLength="136.063" font-family="Verdana">Dashboard Guardia</text><text x="1951.925" y="192.675" fill="#0F172A" font-size="14" textLength="86.823" font-family="Verdana">(Web React)</text><ellipse cx="1998.337" cy="108.383" rx="8" ry="8" fill="#0284C7" style="stroke:#0369A1;stroke-width:1;" filter="url(#fhsac96726hh5)"/><path d="M1998.337,116.383 L1998.337,143.383 M1985.337,124.383 L2011.337,124.383 M1998.337,143.383 L1985.337,158.383 M1998.337,143.383 L2011.337,158.383" style="stroke:#0369A1;stroke-width:1;" fill="none" filter="url(#fhsac96726hh5)"/><text x="2079.368" y="176.378" fill="#0F172A" font-size="14" textLength="139.289" font-family="Verdana">Reanimador Médico</text><text x="2092.076" y="192.675" fill="#0F172A" font-size="14" textLength="113.873" font-family="Verdana">(Terminal Móvil)</text><ellipse cx="2152.013" cy="108.383" rx="8" ry="8" fill="#0284C7" style="stroke:#0369A1;stroke-width:1;" filter="url(#fhsac96726hh5)"/><path d="M2152.013,116.383 L2152.013,143.383 M2139.013,124.383 L2165.013,124.383 M2152.013,143.383 L2139.013,158.383 M2152.013,143.383 L2165.013,158.383" style="stroke:#0369A1;stroke-width:1;" fill="none" filter="url(#fhsac96726hh5)"/><text x="10" y="1620.69" fill="#0F172A" font-size="14" textLength="120.907" font-family="Verdana">Médico Activador</text><text x="23.897" y="1636.987" fill="#0F172A" font-size="14" textLength="93.112" font-family="Verdana">(PWA / Móvil)</text><ellipse cx="73.454" cy="1649.289" rx="8" ry="8" fill="#0284C7" style="stroke:#0369A1;stroke-width:1;" filter="url(#fhsac96726hh5)"/><path d="M73.454,1657.289 L73.454,1684.289 M60.454,1665.289 L86.454,1665.289 M73.454,1684.289 L60.454,1699.289 M73.454,1684.289 L86.454,1699.289" style="stroke:#0369A1;stroke-width:1;" fill="none" filter="url(#fhsac96726hh5)"/><rect x="407.964" y="1612.695" width="127.373" height="42.594" fill="#1E293B" style="stroke:#0F172A;stroke-width:1;" filter="url(#fhsac96726hh5)" rx="3" ry="3"/><text x="440.345" y="1630.69" fill="#FFF" font-size="14" textLength="62.61" font-family="Verdana">API REST</text><text x="412.964" y="1646.987" fill="#FFF" font-size="14" textLength="117.373" font-family="Verdana">(Express Router)</text><rect x="802.863" y="1612.695" width="151.429" height="42.594" fill="#1E293B" style="stroke:#0F172A;stroke-width:1;" filter="url(#fhsac96726hh5)" rx="3" ry="3"/><text x="842.497" y="1630.69" fill="#FFF" font-size="14" textLength="72.16" font-family="Verdana">Use Cases</text><text x="807.863" y="1646.987" fill="#FFF" font-size="14" textLength="141.429" font-family="Verdana">(Clean Architecture)</text><rect x="1261.828" y="1612.695" width="91.252" height="42.594" fill="#1E293B" style="stroke:#0F172A;stroke-width:1;" filter="url(#fhsac96726hh5)" rx="3" ry="3"/><text x="1270.578" y="1630.69" fill="#FFF" font-size="14" textLength="73.753" font-family="Verdana">appEvents</text><text x="1266.828" y="1646.987" fill="#FFF" font-size="14" textLength="81.252" font-family="Verdana">(Event Bus)</text><rect x="1452.469" y="1612.695" width="123.654" height="42.594" fill="#1E293B" style="stroke:#0F172A;stroke-width:1;" filter="url(#fhsac96726hh5)" rx="3" ry="3"/><text x="1457.469" y="1630.69" fill="#FFF" font-size="14" textLength="113.654" font-family="Verdana">Socket Gateway</text><text x="1475.355" y="1646.987" fill="#FFF" font-size="14" textLength="77.882" font-family="Verdana">(Socket.IO)</text><text x="1641.163" y="1620.69" fill="#000" font-size="14" textLength="103.018" font-family="Verdana">PostgreSQL 18</text><text x="1643.863" y="1636.987" fill="#000" font-size="14" textLength="97.617" font-family="Verdana">(ACID Engine)</text><path d="M1677.672,1650.289 C1677.672,1640.289 1695.672,1640.289 1695.672,1640.289 C1695.672,1640.289 1713.672,1640.289 1713.672,1650.289 L1713.672,1676.289 C1713.672,1686.289 1695.672,1686.289 1695.672,1686.289 C1695.672,1686.289 1677.672,1686.289 1677.672,1676.289 L1677.672,1650.289" style="stroke:#000;stroke-width:1;" fill="#FFF" filter="url(#fhsac96726hh5)"/><path d="M1677.672,1650.289 C1677.672,1660.289 1695.672,1660.289 1695.672,1660.289 C1695.672,1660.289 1713.672,1660.289 1713.672,1650.289" style="stroke:#000;stroke-width:1;" fill="none"/><rect x="1770.181" y="1612.695" width="114.125" height="42.594" fill="#1E293B" style="stroke:#0F172A;stroke-width:1;" filter="url(#fhsac96726hh5)" rx="3" ry="3"/><text x="1775.181" y="1630.69" fill="#FFF" font-size="14" textLength="104.125" font-family="Verdana">Firebase Cloud</text><text x="1775.745" y="1646.987" fill="#FFF" font-size="14" textLength="102.997" font-family="Verdana">(FCM HTTP v1)</text><text x="1927.306" y="1620.69" fill="#0F172A" font-size="14" textLength="136.063" font-family="Verdana">Dashboard Guardia</text><text x="1951.925" y="1636.987" fill="#0F172A" font-size="14" textLength="86.823" font-family="Verdana">(Web React)</text><ellipse cx="1998.337" cy="1649.289" rx="8" ry="8" fill="#0284C7" style="stroke:#0369A1;stroke-width:1;" filter="url(#fhsac96726hh5)"/><path d="M1998.337,1657.289 L1998.337,1684.289 M1985.337,1665.289 L2011.337,1665.289 M1998.337,1684.289 L1985.337,1699.289 M1998.337,1684.289 L2011.337,1699.289" style="stroke:#0369A1;stroke-width:1;" fill="none" filter="url(#fhsac96726hh5)"/><text x="2079.368" y="1620.69" fill="#0F172A" font-size="14" textLength="139.289" font-family="Verdana">Reanimador Médico</text><text x="2092.076" y="1636.987" fill="#0F172A" font-size="14" textLength="113.873" font-family="Verdana">(Terminal Móvil)</text><ellipse cx="2152.013" cy="1649.289" rx="8" ry="8" fill="#0284C7" style="stroke:#0369A1;stroke-width:1;" filter="url(#fhsac96726hh5)"/><path d="M2152.013,1657.289 L2152.013,1684.289 M2139.013,1665.289 L2165.013,1665.289 M2152.013,1684.289 L2139.013,1699.289 M2152.013,1684.289 L2165.013,1699.289" style="stroke:#0369A1;stroke-width:1;" fill="none" filter="url(#fhsac96726hh5)"/><rect x="10" y="224.543" width="2214.657" height="3" fill="#FFF" style="stroke:#FFF;stroke-width:1;" filter="url(#fhsac96726hh5)" rx="3" ry="3"/><line x1="10" y1="224.543" x2="2224.657" y2="224.543" style="stroke:#000;stroke-width:0.5;"/><line x1="10" y1="227.543" x2="2224.657" y2="227.543" style="stroke:#000;stroke-width:0.5;"/><rect x="903.957" y="213.977" width="426.744" height="23.133" fill="#FFF" style="stroke:#000;stroke-width:1;" filter="url(#fhsac96726hh5)" rx="3" ry="3"/><text x="909.957" y="230.043" fill="#000" font-size="13" textLength="408.218" font-weight="700" font-family="Verdana">1. Activación de Código Azul y Barrera de Idempotencia</text><polygon points="456.15,279.375,466.15,283.375,456.15,287.375,460.15,283.375" fill="#000" style="stroke:#000;stroke-width:1;stroke-linejoin:miter;stroke-miterlimit:10;"/><line x1="73.454" y1="283.375" x2="462.15" y2="283.375" style="stroke:#000;stroke-width:1;"/><text x="169.049" y="263.176" fill="#000" font-size="13" textLength="203.506" font-family="Verdana">POST /api/v1/incidentes/activar</text><text x="167.51" y="278.309" fill="#000" font-size="13" textLength="206.584" font-family="Verdana">[Bearer JWT, { ubicacionId: 4 }]</text><line x1="478.15" y1="312.508" x2="520.15" y2="312.508" style="stroke:#000;stroke-width:1;"/><line x1="520.15" y1="312.508" x2="520.15" y2="325.508" style="stroke:#000;stroke-width:1;"/><line x1="479.15" y1="325.508" x2="520.15" y2="325.508" style="stroke:#000;stroke-width:1;"/><polygon points="489.15,321.508,479.15,325.508,489.15,329.508,485.15,325.508" fill="#000" style="stroke:#000;stroke-width:1;stroke-linejoin:miter;stroke-miterlimit:10;"/><text x="485.15" y="307.442" fill="#000" font-size="13" textLength="365.193" font-family="Verdana">authenticateJWT() + requireRole('MEDICO_ACTIVADOR')</text><polygon points="863.077,350.641,873.077,354.641,863.077,358.641,867.077,354.641" fill="#000" style="stroke:#000;stroke-width:1;stroke-linejoin:miter;stroke-miterlimit:10;"/><line x1="478.15" y1="354.641" x2="869.077" y2="354.641" style="stroke:#000;stroke-width:1;"/><text x="488.288" y="349.575" fill="#000" font-size="13" textLength="376.651" font-family="Verdana">ActivarCodigoAzulUseCase.execute({ ubicacionId, user })</text><polygon points="1678.672,379.773,1688.672,383.773,1678.672,387.773,1682.672,383.773" fill="#000" style="stroke:#000;stroke-width:1;stroke-linejoin:miter;stroke-miterlimit:10;"/><line x1="885.077" y1="383.773" x2="1684.672" y2="383.773" style="stroke:#000;stroke-width:1;"/><text x="1134.541" y="378.708" fill="#000" font-size="13" textLength="306.668" font-family="Verdana">findRecentActiveByUbicacion(ubicacionId, 60s)</text><polygon points="896.077,408.906,886.077,412.906,896.077,416.906,892.077,412.906" fill="#000" style="stroke:#000;stroke-width:1;stroke-linejoin:miter;stroke-miterlimit:10;"/><line x1="890.077" y1="412.906" x2="1689.672" y2="412.906" style="stroke:#000;stroke-width:1;stroke-dasharray:2,2;"/><text x="1237.503" y="407.84" fill="#000" font-size="13" textLength="100.744" font-family="Verdana">resultadoQuery</text><path d="M60.454,424.906 L121.896,424.906 L121.896,432.039 L111.896,442.039 L57.454,442.039 L57.454,427.906 A3,3 0 0 1 60.454,424.906" style="stroke:#000;stroke-width:1;" fill="#FFF"/><rect x="57.454" y="424.906" width="2135.559" height="635.398" fill="none" style="stroke:#000;stroke-width:1;" rx="3" ry="3"/><text x="72.454" y="437.973" fill="#000" font-size="13" textLength="19.443" font-weight="700" font-family="Verdana">alt</text><text x="136.896" y="437.117" fill="#000" font-size="11" textLength="329.216" font-weight="700" font-family="Verdana">[Incidente Activo Existente (&lt; 60s en la misma sala)]</text><polygon points="1683.672,469.172,1693.672,473.172,1683.672,477.172,1687.672,473.172" fill="#000" style="stroke:#000;stroke-width:1;stroke-linejoin:miter;stroke-miterlimit:10;"/><line x1="885.077" y1="473.172" x2="1689.672" y2="473.172" style="stroke:#000;stroke-width:1;"/><text x="1091.661" y="468.106" fill="#000" font-size="13" textLength="397.427" font-family="Verdana">INSERT auditoria ('ACTIVACION_REDUNDANTE_BLOQUEADA')</text><polygon points="489.15,498.305,479.15,502.305,489.15,506.305,485.15,502.305" fill="#000" style="stroke:#000;stroke-width:1;stroke-linejoin:miter;stroke-miterlimit:10;"/><line x1="483.15" y1="502.305" x2="874.077" y2="502.305" style="stroke:#000;stroke-width:1;stroke-dasharray:2,2;"/><text x="533.211" y="497.239" fill="#000" font-size="13" textLength="286.806" font-family="Verdana">{ incidenteExistente, esReincidencia: true }</text><polygon points="84.454,527.438,74.454,531.438,84.454,535.438,80.454,531.438" fill="#000" style="stroke:#000;stroke-width:1;stroke-linejoin:miter;stroke-miterlimit:10;"/><line x1="78.454" y1="531.438" x2="467.15" y2="531.438" style="stroke:#000;stroke-width:1;stroke-dasharray:2,2;"/><text x="134.407" y="526.372" fill="#000" font-size="13" textLength="272.791" font-family="Verdana">HTTP 200 OK (UUID existente, no duplica)</text><line x1="57.454" y1="540.438" x2="2193.013" y2="540.438" style="stroke:#000;stroke-width:1;stroke-dasharray:2,2;"/><text x="62.454" y="552.648" fill="#000" font-size="11" textLength="186.56" font-weight="700" font-family="Verdana">[Nueva Alerta de Emergencia]</text><polygon points="1678.672,575.375,1688.672,579.375,1678.672,583.375,1682.672,579.375" fill="#000" style="stroke:#000;stroke-width:1;stroke-linejoin:miter;stroke-miterlimit:10;"/><line x1="885.077" y1="579.375" x2="1684.672" y2="579.375" style="stroke:#000;stroke-width:1;"/><text x="1218.653" y="574.309" fill="#000" font-size="13" textLength="138.442" font-family="Verdana">BEGIN TRANSACTION</text><polygon points="1678.672,619.641,1688.672,623.641,1678.672,627.641,1682.672,623.641" fill="#000" style="stroke:#000;stroke-width:1;stroke-linejoin:miter;stroke-miterlimit:10;"/><line x1="885.077" y1="623.641" x2="1684.672" y2="623.641" style="stroke:#000;stroke-width:1;"/><text x="1050.599" y="603.442" fill="#000" font-size="13" textLength="474.551" font-family="Verdana">INSERT INTO incidentes (estado='ACTIVADO', ubicacion_id, activador_id)</text><text x="1159.376" y="618.575" fill="#000" font-size="13" textLength="256.998" font-family="Verdana">RETURNING id, codigo_uuid, created_at</text><polygon points="1678.672,663.906,1688.672,667.906,1678.672,671.906,1682.672,667.906" fill="#000" style="stroke:#000;stroke-width:1;stroke-linejoin:miter;stroke-miterlimit:10;"/><line x1="885.077" y1="667.906" x2="1684.672" y2="667.906" style="stroke:#000;stroke-width:1;"/><text x="1149.496" y="647.708" fill="#000" font-size="13" textLength="276.758" font-family="Verdana">INSERT INTO incidentes_auditoria_eventos</text><text x="1150.708" y="662.84" fill="#000" font-size="13" textLength="274.333" font-family="Verdana">(tipo='ACTIVACION', payload_data JSONB)</text><polygon points="1678.672,693.039,1688.672,697.039,1678.672,701.039,1682.672,697.039" fill="#000" style="stroke:#000;stroke-width:1;stroke-linejoin:miter;stroke-miterlimit:10;"/><line x1="885.077" y1="697.039" x2="1684.672" y2="697.039" style="stroke:#000;stroke-width:1;"/><text x="1261.116" y="691.973" fill="#000" font-size="13" textLength="53.517" font-family="Verdana">COMMIT</text><polygon points="896.077,722.172,886.077,726.172,896.077,730.172,892.077,726.172" fill="#000" style="stroke:#000;stroke-width:1;stroke-linejoin:miter;stroke-miterlimit:10;"/><line x1="890.077" y1="726.172" x2="1689.672" y2="726.172" style="stroke:#000;stroke-width:1;stroke-dasharray:2,2;"/><text x="1096.445" y="721.106" fill="#000" font-size="13" textLength="382.859" font-family="Verdana">nuevoIncidente { id: 101, uuid: '550e8400...', created_at }</text><polygon points="1291.954,751.305,1301.954,755.305,1291.954,759.305,1295.954,755.305" fill="#000" style="stroke:#000;stroke-width:1;stroke-linejoin:miter;stroke-miterlimit:10;"/><line x1="885.077" y1="755.305" x2="1297.954" y2="755.305" style="stroke:#000;stroke-width:1;"/><text x="981.073" y="750.239" fill="#000" font-size="13" textLength="226.884" font-family="Verdana">emit('incidente:activado', payload)</text><path d="M1295.954,767.305 L1362.443,767.305 L1362.443,774.438 L1352.443,784.438 L1292.954,784.438 L1292.954,770.305 A3,3 0 0 1 1295.954,767.305" style="stroke:#000;stroke-width:1;" fill="#FFF"/><rect x="1292.954" y="767.305" width="875.059" height="220.734" fill="none" style="stroke:#000;stroke-width:1;" rx="3" ry="3"/><text x="1307.954" y="780.372" fill="#000" font-size="13" textLength="24.489" font-weight="700" font-family="Verdana">par</text><text x="1377.443" y="779.515" fill="#000" font-size="11" textLength="312.125" font-weight="700" font-family="Verdana">[Broadcast en Tiempo Real (WebSockets ≤ 35ms)]</text><polygon points="1498.796,811.57,1508.796,815.57,1498.796,819.57,1502.796,815.57" fill="#000" style="stroke:#000;stroke-width:1;stroke-linejoin:miter;stroke-miterlimit:10;"/><line x1="1313.954" y1="815.57" x2="1504.796" y2="815.57" style="stroke:#000;stroke-width:1;"/><text x="1323.454" y="810.504" fill="#000" font-size="13" textLength="177.842" font-family="Verdana">retransmitirAlerta(payload)</text><polygon points="1986.337,840.703,1996.337,844.703,1986.337,848.703,1990.337,844.703" fill="#000" style="stroke:#000;stroke-width:1;stroke-linejoin:miter;stroke-miterlimit:10;"/><line x1="1520.796" y1="844.703" x2="1992.337" y2="844.703" style="stroke:#000;stroke-width:1;"/><text x="1559.225" y="839.637" fill="#000" font-size="13" textLength="400.683" font-family="Verdana">emit('codigo_azul_alerta', { id: 101, cama: 'UCI-01', piso: 3 })</text><polygon points="2140.013,869.836,2150.013,873.836,2140.013,877.836,2144.013,873.836" fill="#000" style="stroke:#000;stroke-width:1;stroke-linejoin:miter;stroke-miterlimit:10;"/><line x1="1520.796" y1="873.836" x2="2146.013" y2="873.836" style="stroke:#000;stroke-width:1;"/><text x="1722.696" y="868.77" fill="#000" font-size="13" textLength="227.417" font-family="Verdana">emit('codigo_azul_alerta', payload)</text><line x1="1292.954" y1="882.836" x2="2168.013" y2="882.836" style="stroke:#000;stroke-width:1;stroke-dasharray:2,2;"/><text x="1297.954" y="895.046" fill="#000" font-size="11" textLength="355.711" font-weight="700" font-family="Verdana">[Push Notification de Alta Prioridad (Doze Mode Bypass)]</text><polygon points="1811.743,917.773,1821.743,921.773,1811.743,925.773,1815.743,921.773" fill="#000" style="stroke:#000;stroke-width:1;stroke-linejoin:miter;stroke-miterlimit:10;"/><line x1="1313.954" y1="921.773" x2="1817.743" y2="921.773" style="stroke:#000;stroke-width:1;"/><text x="1425.792" y="916.708" fill="#000" font-size="13" textLength="286.114" font-family="Verdana">sendEachForMulticast(tokens, high_priority)</text><polygon points="2140.013,946.906,2150.013,950.906,2140.013,954.906,2144.013,950.906" fill="#000" style="stroke:#000;stroke-width:1;stroke-linejoin:miter;stroke-miterlimit:10;"/><line x1="1833.743" y1="950.906" x2="2146.013" y2="950.906" style="stroke:#000;stroke-width:1;"/><text x="1876.541" y="945.84" fill="#000" font-size="13" textLength="232.673" font-family="Verdana">Push Notification con Sirena Sonora</text><polygon points="1683.672,976.039,1693.672,980.039,1683.672,984.039,1687.672,980.039" fill="#000" style="stroke:#000;stroke-width:1;stroke-linejoin:miter;stroke-miterlimit:10;"/><line x1="1313.954" y1="980.039" x2="1689.672" y2="980.039" style="stroke:#000;stroke-width:1;"/><text x="1323.454" y="974.973" fill="#000" font-size="13" textLength="362.718" font-family="Verdana">INSERT auditoria ('NOTIFICACION_PUSH_DESPACHADA')</text><polygon points="489.15,1019.172,479.15,1023.172,489.15,1027.172,485.15,1023.172" fill="#000" style="stroke:#000;stroke-width:1;stroke-linejoin:miter;stroke-miterlimit:10;"/><line x1="483.15" y1="1023.172" x2="874.077" y2="1023.172" style="stroke:#000;stroke-width:1;stroke-dasharray:2,2;"/><text x="497.28" y="1018.106" fill="#000" font-size="13" textLength="358.668" font-family="Verdana">{ incidente: payloadRespuesta, esReincidencia: false }</text><polygon points="84.454,1048.305,74.454,1052.305,84.454,1056.305,80.454,1052.305" fill="#000" style="stroke:#000;stroke-width:1;stroke-linejoin:miter;stroke-miterlimit:10;"/><line x1="78.454" y1="1052.305" x2="467.15" y2="1052.305" style="stroke:#000;stroke-width:1;stroke-dasharray:2,2;"/><text x="85.454" y="1047.239" fill="#000" font-size="13" textLength="370.697" font-family="Verdana">HTTP 201 Created { id: 101, codigoUUID: '550e8400...' }</text><rect x="10" y="1094.871" width="2214.657" height="3" fill="#FFF" style="stroke:#FFF;stroke-width:1;" filter="url(#fhsac96726hh5)" rx="3" ry="3"/><line x1="10" y1="1094.871" x2="2224.657" y2="1094.871" style="stroke:#000;stroke-width:0.5;"/><line x1="10" y1="1097.871" x2="2224.657" y2="1097.871" style="stroke:#000;stroke-width:0.5;"/><rect x="900.761" y="1084.305" width="433.136" height="23.133" fill="#FFF" style="stroke:#000;stroke-width:1;" filter="url(#fhsac96726hh5)" rx="3" ry="3"/><text x="906.761" y="1100.372" fill="#000" font-size="13" textLength="414.61" font-weight="700" font-family="Verdana">2. Respuesta Médica y Confirmación de Asistencia (ACK)</text><polygon points="489.15,1149.703,479.15,1153.703,489.15,1157.703,485.15,1153.703" fill="#000" style="stroke:#000;stroke-width:1;stroke-linejoin:miter;stroke-miterlimit:10;"/><line x1="483.15" y1="1153.703" x2="2151.013" y2="1153.703" style="stroke:#000;stroke-width:1;"/><text x="1214.309" y="1133.504" fill="#000" font-size="13" textLength="201.544" font-family="Verdana">PUT /api/v1/incidentes/101/ack</text><text x="1273.844" y="1148.637" fill="#000" font-size="13" textLength="82.475" font-family="Verdana">[Bearer JWT]</text><polygon points="863.077,1178.836,873.077,1182.836,863.077,1186.836,867.077,1182.836" fill="#000" style="stroke:#000;stroke-width:1;stroke-linejoin:miter;stroke-miterlimit:10;"/><line x1="478.15" y1="1182.836" x2="869.077" y2="1182.836" style="stroke:#000;stroke-width:1;"/><text x="487.65" y="1177.77" fill="#000" font-size="13" textLength="377.927" font-family="Verdana">ConfirmarAckUseCase.execute({ incidenteId: 101, user })</text><polygon points="1678.672,1207.969,1688.672,1211.969,1678.672,1215.969,1682.672,1211.969" fill="#000" style="stroke:#000;stroke-width:1;stroke-linejoin:miter;stroke-miterlimit:10;"/><line x1="885.077" y1="1211.969" x2="1684.672" y2="1211.969" style="stroke:#000;stroke-width:1;"/><text x="1243.708" y="1206.903" fill="#000" font-size="13" textLength="88.334" font-family="Verdana">findById(101)</text><polygon points="896.077,1237.102,886.077,1241.102,896.077,1245.102,892.077,1241.102" fill="#000" style="stroke:#000;stroke-width:1;stroke-linejoin:miter;stroke-miterlimit:10;"/><line x1="890.077" y1="1241.102" x2="1689.672" y2="1241.102" style="stroke:#000;stroke-width:1;stroke-dasharray:2,2;"/><text x="1121.626" y="1236.036" fill="#000" font-size="13" textLength="332.497" font-family="Verdana">incidenteData (estado: 'ACTIVADO', created_at: t0)</text><line x1="885.077" y1="1270.234" x2="927.077" y2="1270.234" style="stroke:#000;stroke-width:1;"/><line x1="927.077" y1="1270.234" x2="927.077" y2="1283.234" style="stroke:#000;stroke-width:1;"/><line x1="886.077" y1="1283.234" x2="927.077" y2="1283.234" style="stroke:#000;stroke-width:1;"/><polygon points="896.077,1279.234,886.077,1283.234,896.077,1287.234,892.077,1283.234" fill="#000" style="stroke:#000;stroke-width:1;stroke-linejoin:miter;stroke-miterlimit:10;"/><text x="892.077" y="1265.168" fill="#000" font-size="13" textLength="249.272" font-family="Verdana">calcularLatencia(t_actual - t0) = 1.25s</text><polygon points="1678.672,1308.367,1688.672,1312.367,1678.672,1316.367,1682.672,1312.367" fill="#000" style="stroke:#000;stroke-width:1;stroke-linejoin:miter;stroke-miterlimit:10;"/><line x1="885.077" y1="1312.367" x2="1684.672" y2="1312.367" style="stroke:#000;stroke-width:1;"/><text x="1218.653" y="1307.301" fill="#000" font-size="13" textLength="138.442" font-family="Verdana">BEGIN TRANSACTION</text><polygon points="1678.672,1337.5,1688.672,1341.5,1678.672,1345.5,1682.672,1341.5" fill="#000" style="stroke:#000;stroke-width:1;stroke-linejoin:miter;stroke-miterlimit:10;"/><line x1="885.077" y1="1341.5" x2="1684.672" y2="1341.5" style="stroke:#000;stroke-width:1;"/><text x="1049.961" y="1336.434" fill="#000" font-size="13" textLength="475.827" font-family="Verdana">UPDATE incidentes SET estado='EN_ATENCION', reanimador_id=$user.id</text><polygon points="1678.672,1381.766,1688.672,1385.766,1678.672,1389.766,1682.672,1385.766" fill="#000" style="stroke:#000;stroke-width:1;stroke-linejoin:miter;stroke-miterlimit:10;"/><line x1="885.077" y1="1385.766" x2="1684.672" y2="1385.766" style="stroke:#000;stroke-width:1;"/><text x="1149.496" y="1365.567" fill="#000" font-size="13" textLength="276.758" font-family="Verdana">INSERT INTO incidentes_auditoria_eventos</text><text x="1136.191" y="1380.7" fill="#000" font-size="13" textLength="303.367" font-family="Verdana">(tipo='ACK_PRIMARIO', latencia: 1.25s, JSONB)</text><polygon points="1678.672,1410.898,1688.672,1414.898,1678.672,1418.898,1682.672,1414.898" fill="#000" style="stroke:#000;stroke-width:1;stroke-linejoin:miter;stroke-miterlimit:10;"/><line x1="885.077" y1="1414.898" x2="1684.672" y2="1414.898" style="stroke:#000;stroke-width:1;"/><text x="1261.116" y="1409.833" fill="#000" font-size="13" textLength="53.517" font-family="Verdana">COMMIT</text><polygon points="896.077,1440.031,886.077,1444.031,896.077,1448.031,892.077,1444.031" fill="#000" style="stroke:#000;stroke-width:1;stroke-linejoin:miter;stroke-miterlimit:10;"/><line x1="890.077" y1="1444.031" x2="1689.672" y2="1444.031" style="stroke:#000;stroke-width:1;stroke-dasharray:2,2;"/><text x="1278.496" y="1438.965" fill="#000" font-size="13" textLength="18.757" font-family="Verdana">OK</text><polygon points="1291.954,1469.164,1301.954,1473.164,1291.954,1477.164,1295.954,1473.164" fill="#000" style="stroke:#000;stroke-width:1;stroke-linejoin:miter;stroke-miterlimit:10;"/><line x1="885.077" y1="1473.164" x2="1297.954" y2="1473.164" style="stroke:#000;stroke-width:1;"/><text x="894.577" y="1468.098" fill="#000" font-size="13" textLength="399.877" font-family="Verdana">emit('incidente:ack', { id: 101, latencia: 1.25s, reanimador })</text><polygon points="1498.796,1498.297,1508.796,1502.297,1498.796,1506.297,1502.796,1502.297" fill="#000" style="stroke:#000;stroke-width:1;stroke-linejoin:miter;stroke-miterlimit:10;"/><line x1="1313.954" y1="1502.297" x2="1504.796" y2="1502.297" style="stroke:#000;stroke-width:1;"/><text x="1331.125" y="1497.231" fill="#000" font-size="13" textLength="162.5" font-family="Verdana">retransmitirAck(payload)</text><polygon points="1986.337,1527.43,1996.337,1531.43,1986.337,1535.43,1990.337,1531.43" fill="#000" style="stroke:#000;stroke-width:1;stroke-linejoin:miter;stroke-miterlimit:10;"/><line x1="1520.796" y1="1531.43" x2="1992.337" y2="1531.43" style="stroke:#000;stroke-width:1;"/><text x="1538.887" y="1526.364" fill="#000" font-size="13" textLength="441.359" font-family="Verdana">emit('codigo_azul_atendido', { id: 101, reanimador: 'Dr. Cardozo' })</text><polygon points="489.15,1556.563,479.15,1560.563,489.15,1564.563,485.15,1560.563" fill="#000" style="stroke:#000;stroke-width:1;stroke-linejoin:miter;stroke-miterlimit:10;"/><line x1="483.15" y1="1560.563" x2="874.077" y2="1560.563" style="stroke:#000;stroke-width:1;stroke-dasharray:2,2;"/><text x="495.093" y="1555.497" fill="#000" font-size="13" textLength="363.042" font-family="Verdana">payloadACK { estado: 'EN_ATENCION', latencia: 1.25s }</text><polygon points="2140.013,1585.695,2150.013,1589.695,2140.013,1593.695,2144.013,1589.695" fill="#000" style="stroke:#000;stroke-width:1;stroke-linejoin:miter;stroke-miterlimit:10;"/><line x1="478.15" y1="1589.695" x2="2146.013" y2="1589.695" style="stroke:#000;stroke-width:1;stroke-dasharray:2,2;"/><text x="1192.331" y="1584.629" fill="#000" font-size="13" textLength="245.502" font-family="Verdana">HTTP 200 OK (Asistencia Confirmada)</text><?plantuml-src fLVBRkD65jtpAswSGIHXR5cI7-qMnW7uKZVJ5gMMgEb5CX3AP5cgc68fLQHZTwE1sSv-Fc4si-vFw3_9bymjlaIAifD11DWGMVTzJvrxzKsyfXiAsv2mI9FtBDeIGJOWwIy9ZNmwfbAI5TL3jeh0fr5CHKLAy2GAV2uYAk2oghqc0V-LHIk8HK8h1xV4lr-bMYOFkO1lH-ddW6Fuf05-faJ4p6TR4iN6lcxV7hm-CnfYN0HKv2AzKV_LGDyN6V4ehljN0heVSz5mqXjSdPklAW8rysUNh_N-xh1YkEBvXjtH6nRHXktNv_gPSLMNgPe_VtLnSVawFJVuOqDzT3NIHsPvNDKq3Ul2xckVDMrD2Rw6QKXYSiV5Xi1RBhSi9Y4HZ83vzKl0LXpqZqa8l_tptp1nRMyAWzxWKejP759OZ6zEUeCXM8oii4440WfpwgiceRvICOdqIK304oIInFSPZqW8ty6C4Zzc3qJJY2eE78s__ZTWFbUrmjS15pz5xUa77KvX_FNB0mixHq3axbIxvOzmfDAcKG0c5nJQzkDM82JX0fLS7j3kpn86vwZuhJqQNUQTtEvQ3KVwr86PFVVGLw4yumdYEFSsTPew2qbLLbIYaXbI4e4k_3MBgHydWcQAAAD4cifakxKVyAOevVGB68dCTD97V6egpJbc6SCR4jDVoHDgPY-wpYJJp1wbfYg1PT6osZZHdI1KuYLJWH6i-PGAoMISDWUBCh97Ppbw0mJ0BGOCHrCkuvMWy_StqBz2LxhfM617AuHVvimocW6EcA2fkXdo942jaJc6jnvYvQ6VQU6BNNXvnoqYrxUSY03U9FYV4LJyG6ypQ6Hg-K6XWISHswZsGmuNLF6es305gYfETfAQTdqD_MwE79zz_H8fbDQm_GG64OAA5BzEG3TRdbK9hgyrhSGSd7ol8364wMJkmIdPijE7_Yb3mK2HdppD88t8_T6W1Et13n-yO_W4oItpYOA-4mpX73x_GyiaOvf2J5CmB6oJ14atmjhYAQgtE_1N4CXxME8P3scxDROjnvmiTTDp_gvRarchK-Zdg1lckU9zLocg3FEJBdt4ondJTYsaOqWanlgviukgmA-MVr7MBMC8TomAPbHHVUg26a-BmawxPl6o9olc43EM0IVL4F6k9M6CLNsVKF6a1RGgh94m1gUeQvOE1_in1I--QFzDEG0QGKXWmoGIZqJEwgJ8t0lPSUVspCEo1WmnX2rjjxBIcSx4NSviQ-5QkklPI-DcydvXwvRUshDJTEOJbAqkGpa6AcSqVu-06QP33JvdjA_QehGB00spIp7ezM3o3jgB1TujkZCLSGYIROXbx6WqHDTkGXy8w24LSGfDUqF5AlLpA5F3VkEuuCrqTwuodBYfKBMkpvV7SRt9BZq9RIGEZFYwLS2iTRo3p99XXqcH53vrVefcjhUOkOxx1jIXdo9lcIJfWw3eFrYI-8y7i2pxjQIA5xaYp9XjouXKzp2cBNaAEGcMYi3WX_d4DGw2m9oCnuwNdkm3CS8QyntMiCbuH_kzFkQRgA-jYuiUlJhlzRhTRgkQJDxaFUJkEIz8VGXqm-9sgynmMDHlbqIdtgzo7XHy2uP0AP_8M27VOugc5D65e6Wp7mBmsx_-0sSN6vbPKv_2a8edbrBtBrOJ6ODY8WDOknP6BPHYm1G7XIyqc3DqaL_UU8ASioIfsTPnjQO-BWbOquNfdFJwAdKc-H3E5FaSCBvZyHVjDmAlzAGQUdgdfebSutOGipj5iOXcTR5qf2AO2eQ02qW0ROj_f3365GACfosHpnGJXzeGTz8ei8c_7d4nHaPZgZ_jcEDQ8ezXpLRhvJQr6pyTAAmQYyLBDJFtScx6wkFV74T1H32pY0joAEUgrMgypz2XE_6SaMDcX3XTpDykBNi-rSstEox47FV1NeVdIsGvB1eqetARA69fikOTKRrftAZg7lKyc_R1p6vb3MafKXJ5xjtXfXSrWrM6QbCOTA4CCryo2Eu79e_k62x8vVwWbviKu8xqhfDk2fNzf5mL5WSt1GmHjuNxsgRmp5PGCbKHWz3z--P0Buqx9N_zFrFTU7A2DggzFBLB9vRYstn8O7qhKs97a3WBUvtzoLvnNLhrIUWd-9FZXcGLRSTBr4cGs4wK2L3xs-12Dk9k3hoggptXnTJIFRiwu-Qs1yMOizqbdhhvL15b7t6uNVz55RBB0ktFJwvto-dC6UipHrKgpDCTPkaT5_FhyEpQRyNatGkbVMditDSPkH75BlaQUChx_llZnB_VpP864V_1sO511IoTZfLOHOKRMvReukym4V2FlAKYFK3w1-cgGLLvhDWTz5L2kew8lIeXXnnWAQsWg2g7rpQ-2ciKjpaWjT3HnFy0?></g></svg>